<?xml version="1.0" ?><!DOCTYPE svg  PUBLIC '-//W3C//DTD SVG 1.1//EN'  'http://www.w3.org/Graphics/SVG/1.1/DTD/svg11.dtd'><svg enable-background="new -1.23 -8.789 141.732 141.732" height="141.732px" id="Livello_1" version="1.1" viewBox="-1.23 -8.789 141.732 141.732" width="141.732px" xml:space="preserve" xmlns="http://www.w3.org/2000/svg" xmlns:xlink="http://www.w3.org/1999/xlink"><g id="Livello_100"><path d="M139.273,49.088c0-3.284-2.75-5.949-6.146-5.949c-0.219,0-0.434,0.012-0.646,0.031l-42.445-1.001l-14.5-37.854   C74.805,1.824,72.443,0,69.637,0c-2.809,0-5.168,1.824-5.902,4.315L49.232,42.169L6.789,43.17c-0.213-0.021-0.43-0.031-0.646-0.031   C2.75,43.136,0,45.802,0,49.088c0,2.1,1.121,3.938,2.812,4.997l33.807,23.9l-12.063,37.494c-0.438,0.813-0.688,1.741-0.688,2.723   c0,3.287,2.75,5.952,6.146,5.952c1.438,0,2.766-0.484,3.812-1.29l35.814-22.737l35.812,22.737c1.049,0.806,2.371,1.29,3.812,1.29   c3.393,0,6.143-2.665,6.143-5.952c0-0.979-0.25-1.906-0.688-2.723l-12.062-37.494l33.806-23.9   C138.15,53.024,139.273,51.185,139.273,49.088"/></g><g id="Livello_1_1_"/></svg>