<svg width="56.693" height="56.693" xmlns="http://www.w3.org/2000/svg">

 <g>
  <title>background</title>
  <rect fill="none" id="canvas_background" height="402" width="582" y="-1" x="-1"/>
 </g>
 <g>
  <title>Layer 1</title>
  <path fill="#ffffff" id="svg_1" d="m43.331356,4.831l-30.414,0c-5.283,0 -9.581,4.297 -9.581,9.58l0,10.12l0,20.295c0,5.283 4.298,9.58 9.581,9.58l30.415,0c5.283,0 9.58,-4.297 9.58,-9.58l0,-20.296l0,-10.12c-0.001,-5.283 -4.298,-9.579 -9.581,-9.579zm2.748,5.713l1.096,-0.004l0,1.091l0,7.312l-8.375,0.027l-0.029,-8.402l7.308,-0.024zm-25.031,13.986c1.588,-2.197 4.164,-3.638 7.076,-3.638s5.488,1.441 7.074,3.638c1.033,1.434 1.652,3.188 1.652,5.088c0,4.811 -3.918,8.725 -8.727,8.725c-4.812,0 -8.726,-3.914 -8.726,-8.725c0.001,-1.9 0.618,-3.654 1.651,-5.088zm27.033,20.295c0,2.621 -2.131,4.75 -4.75,4.75l-30.414,0c-2.62,0 -4.751,-2.129 -4.751,-4.75l0,-20.295l7.4,0c-0.639,1.572 -0.998,3.289 -0.998,5.088c0,7.473 6.08,13.557 13.556,13.557c7.475,0 13.555,-6.084 13.555,-13.557c0,-1.799 -0.361,-3.516 -1,-5.088l7.402,0l0,20.295z"/>
 </g>
</svg>