<?xml version="1.0" ?><svg viewBox="0 0 32 32" xmlns="http://www.w3.org/2000/svg"><title/><g id="Icons"><path d="M21,24a1,1,0,0,0-1,1v3H6V4H20V7a1,1,0,0,0,2,0V3a1,1,0,0,0-1-1H5A1,1,0,0,0,4,3V29a1,1,0,0,0,1,1H21a1,1,0,0,0,1-1V25A1,1,0,0,0,21,24Z"/><circle cx="9" cy="16" r="1"/><path d="M27,15H19.08l2.7-3.37a1,1,0,1,0-1.56-1.25l-4,5a.44.44,0,0,0-.08.15.41.41,0,0,0-.07.11,1,1,0,0,0,0,.72.41.41,0,0,0,.07.11.6.6,0,0,0,.08.16l4,5A1,1,0,0,0,21,22a1,1,0,0,0,.63-.22,1,1,0,0,0,.15-1.4L19.08,17H27a1,1,0,0,0,0-2Z"/></g></svg>