<?xml version="1.0" ?><!DOCTYPE svg  PUBLIC '-//W3C//DTD SVG 1.1//EN'  'http://www.w3.org/Graphics/SVG/1.1/DTD/svg11.dtd'><svg enable-background="new 0 0 50 50" height="50px" id="Layer_1" version="1.1" viewBox="0 0 50 50" width="50px" xml:space="preserve" xmlns="http://www.w3.org/2000/svg" xmlns:xlink="http://www.w3.org/1999/xlink"><circle cx="25" cy="25" fill="none" r="24" stroke="#000000" stroke-linecap="round" stroke-miterlimit="10" stroke-width="2"/><rect fill="none" height="50" width="50"/><path d="M29.933,35.528c-0.026-0.287-0.045-0.748-0.06-1.226c4.345-0.445,7.393-1.487,7.393-2.701  c-0.012-0.002-0.011-0.05-0.011-0.07c-3.248-2.927,2.816-23.728-8.473-23.306c-0.709-0.6-1.95-1.133-3.73-1.133  c-15.291,1.157-8.53,20.8-12.014,24.508c-0.002,0.001-0.005,0.001-0.007,0.001c0,0.002,0.001,0.004,0.001,0.006  c0,0.001-0.001,0.002-0.001,0.002s0.001,0,0.002,0.001c0.014,1.189,2.959,2.212,7.178,2.668c-0.012,0.29-0.037,0.649-0.092,1.25  c-1.282,3.447-7.958,3.663-11.659,7.092c2.023,1.766,9.072,6.508,16.634,6.508s13.842-3.589,16.346-6.608  C37.731,39.188,31.202,38.941,29.933,35.528z"/></svg>