<svg id="svg" version="1.1" xmlns="http://www.w3.org/2000/svg" xmlns:xlink="http://www.w3.org/1999/xlink" width="400" height="178.20512820512823" viewBox="0, 0, 400,178.20512820512823"><g id="svgg"><path id="path0" d="M35.918 45.808 C 35.722 45.894,34.972 45.970,34.252 45.977 C 33.520 45.984,32.694 46.102,32.380 46.245 C 32.071 46.386,31.417 46.540,30.927 46.587 C 29.588 46.715,28.116 47.027,28.000 47.207 C 27.943 47.294,27.656 47.411,27.362 47.465 C 26.333 47.656,25.506 47.911,24.655 48.299 C 22.855 49.120,20.143 50.536,20.143 50.654 C 20.143 50.722,20.002 50.823,19.831 50.878 C 19.659 50.933,19.286 51.179,19.001 51.425 C 18.716 51.671,18.423 51.872,18.349 51.872 C 17.184 51.872,13.000 57.600,11.904 60.695 C 11.125 62.894,11.052 63.198,11.052 64.218 C 11.052 64.769,10.971 65.269,10.873 65.330 C 10.636 65.476,10.636 70.174,10.873 70.321 C 10.971 70.381,11.052 70.882,11.052 71.433 C 11.052 72.737,11.451 74.025,12.602 76.429 C 13.483 78.270,15.098 80.314,16.692 81.608 C 16.972 81.835,17.482 82.255,17.825 82.540 C 18.168 82.826,18.522 83.062,18.611 83.063 C 18.699 83.065,19.021 83.256,19.325 83.488 C 19.630 83.720,20.680 84.286,21.660 84.745 C 22.639 85.204,23.641 85.682,23.886 85.807 C 24.131 85.932,24.693 86.137,25.134 86.264 C 25.575 86.390,26.096 86.558,26.292 86.636 C 26.488 86.715,27.090 86.916,27.629 87.084 C 28.168 87.252,28.794 87.459,29.019 87.545 C 29.244 87.630,29.645 87.703,29.910 87.706 C 30.175 87.709,30.548 87.830,30.738 87.974 C 30.928 88.118,31.334 88.235,31.638 88.235 C 31.943 88.235,32.269 88.307,32.362 88.395 C 32.455 88.483,32.852 88.595,33.244 88.643 C 33.636 88.691,34.439 88.868,35.027 89.035 C 35.615 89.203,36.457 89.380,36.898 89.429 C 37.340 89.478,37.777 89.590,37.870 89.679 C 37.963 89.767,38.295 89.840,38.607 89.840 C 38.919 89.840,39.405 89.959,39.686 90.106 C 39.966 90.252,40.412 90.373,40.676 90.373 C 40.940 90.374,41.205 90.455,41.266 90.553 C 41.326 90.651,41.536 90.731,41.733 90.731 C 42.172 90.731,43.877 91.261,44.109 91.470 C 44.202 91.553,44.458 91.622,44.678 91.622 C 44.897 91.622,45.127 91.702,45.187 91.800 C 45.248 91.898,45.455 91.979,45.647 91.979 C 45.839 91.979,46.296 92.161,46.661 92.384 C 47.027 92.607,47.555 92.905,47.834 93.047 C 48.501 93.386,50.267 95.302,50.268 95.688 C 50.269 95.854,50.389 96.219,50.536 96.500 C 50.682 96.781,50.802 97.193,50.802 97.415 C 50.802 97.638,50.682 98.050,50.536 98.331 C 50.389 98.612,50.269 98.962,50.268 99.109 C 50.260 100.272,47.554 102.495,45.587 102.955 C 45.316 103.018,45.051 103.141,44.997 103.228 C 44.943 103.315,44.559 103.387,44.143 103.387 C 43.727 103.387,43.311 103.461,43.217 103.552 C 43.086 103.680,40.142 103.886,38.146 103.907 C 36.469 103.925,30.775 103.392,30.659 103.206 C 30.610 103.127,30.128 102.971,29.589 102.859 C 29.051 102.746,28.289 102.589,27.897 102.508 C 27.081 102.340,24.362 101.391,23.173 100.859 C 22.732 100.662,22.090 100.381,21.747 100.235 C 20.661 99.774,17.341 97.949,17.112 97.687 C 16.246 96.697,15.022 96.778,14.490 97.861 C 13.897 99.066,12.299 102.526,12.299 102.604 C 12.299 102.642,12.066 103.174,11.782 103.787 C 11.249 104.935,10.514 106.568,10.037 107.665 C 9.887 108.008,9.634 108.551,9.474 108.873 C 9.212 109.399,9.210 109.504,9.455 109.942 C 9.754 110.476,14.011 113.140,14.840 113.312 C 15.109 113.368,15.330 113.484,15.330 113.570 C 15.330 113.655,15.418 113.725,15.526 113.725 C 15.717 113.725,16.714 114.127,17.333 114.453 C 17.503 114.543,17.757 114.617,17.898 114.617 C 18.038 114.617,18.420 114.751,18.747 114.914 C 19.073 115.078,19.480 115.278,19.650 115.360 C 19.820 115.441,20.201 115.508,20.497 115.508 C 20.792 115.508,21.034 115.582,21.034 115.672 C 21.034 115.843,22.246 116.188,23.397 116.345 C 23.765 116.396,24.111 116.509,24.165 116.596 C 24.219 116.684,24.604 116.756,25.019 116.756 C 25.435 116.756,25.865 116.846,25.975 116.956 C 26.208 117.188,28.004 117.464,30.036 117.578 C 30.820 117.622,31.654 117.756,31.890 117.876 C 32.512 118.191,43.918 118.185,44.234 117.870 C 44.371 117.733,44.952 117.647,45.747 117.647 C 46.457 117.647,47.087 117.567,47.148 117.469 C 47.209 117.371,47.594 117.290,48.005 117.289 C 48.416 117.289,48.982 117.169,49.263 117.022 C 49.544 116.876,50.000 116.756,50.277 116.756 C 50.554 116.756,50.831 116.676,50.891 116.578 C 50.952 116.480,51.187 116.399,51.415 116.399 C 52.374 116.399,57.217 114.112,59.269 112.690 C 61.928 110.848,64.970 107.345,66.032 104.902 C 66.203 104.510,66.441 103.988,66.562 103.743 C 66.684 103.498,66.882 102.937,67.004 102.496 C 67.126 102.054,67.299 101.451,67.389 101.154 C 67.926 99.379,68.257 95.048,67.940 93.939 C 67.782 93.385,67.556 92.270,67.271 90.642 C 67.219 90.348,67.113 89.947,67.036 89.750 C 65.218 85.172,62.119 81.843,57.754 79.779 C 57.215 79.524,56.653 79.246,56.506 79.162 C 56.359 79.077,55.998 78.908,55.704 78.787 C 55.410 78.665,54.969 78.470,54.724 78.352 C 54.479 78.234,53.917 78.034,53.476 77.907 C 53.035 77.781,52.513 77.619,52.317 77.546 C 50.703 76.952,49.844 76.712,48.663 76.524 C 48.320 76.469,47.999 76.365,47.950 76.292 C 47.842 76.131,46.351 75.756,45.365 75.642 C 44.973 75.596,44.492 75.490,44.296 75.406 C 43.588 75.103,41.472 74.621,39.840 74.392 C 39.447 74.337,39.038 74.220,38.929 74.133 C 38.739 73.979,37.604 73.693,36.407 73.496 C 36.087 73.444,35.781 73.330,35.728 73.242 C 35.674 73.155,35.477 73.084,35.290 73.084 C 35.103 73.084,34.646 72.952,34.275 72.792 C 33.904 72.631,33.440 72.440,33.244 72.367 C 29.446 70.949,27.273 68.204,28.141 65.917 C 28.227 65.692,28.398 65.187,28.523 64.795 C 28.647 64.403,28.801 64.042,28.864 63.993 C 28.927 63.944,29.144 63.688,29.347 63.424 C 29.836 62.785,31.113 61.828,31.996 61.438 C 32.389 61.265,32.849 61.047,33.019 60.954 C 33.189 60.861,33.514 60.784,33.741 60.784 C 33.968 60.784,34.230 60.712,34.323 60.623 C 34.499 60.456,34.791 60.412,38.085 60.052 C 40.419 59.797,42.622 59.949,47.504 60.702 C 47.897 60.763,48.470 60.926,48.779 61.066 C 49.088 61.205,49.504 61.319,49.704 61.319 C 49.904 61.319,50.118 61.399,50.178 61.497 C 50.239 61.595,50.485 61.676,50.726 61.676 C 50.967 61.676,51.303 61.748,51.473 61.836 C 51.742 61.975,52.453 62.259,53.743 62.743 C 54.277 62.944,56.081 63.776,57.460 64.458 C 59.402 65.418,60.059 65.298,60.517 63.901 C 60.677 63.412,61.003 62.589,61.242 62.072 C 61.480 61.554,61.676 61.052,61.676 60.955 C 61.676 60.859,61.747 60.640,61.834 60.470 C 61.921 60.300,62.134 59.840,62.306 59.447 C 62.478 59.055,62.688 58.595,62.771 58.425 C 62.855 58.255,62.923 58.029,62.923 57.923 C 62.923 57.818,63.134 57.275,63.392 56.718 C 63.649 56.160,63.919 55.544,63.992 55.348 C 64.147 54.926,64.392 54.349,64.803 53.433 C 65.435 52.022,64.909 51.589,59.715 49.248 C 59.372 49.094,58.952 48.899,58.781 48.815 C 58.611 48.732,58.270 48.663,58.024 48.663 C 57.777 48.663,57.576 48.599,57.576 48.522 C 57.576 48.358,55.766 47.772,55.262 47.772 C 55.076 47.772,54.873 47.692,54.813 47.594 C 54.752 47.496,54.393 47.415,54.015 47.415 C 53.637 47.415,53.299 47.331,53.265 47.227 C 53.199 47.031,51.769 46.740,50.089 46.582 C 49.550 46.531,49.005 46.404,48.878 46.300 C 48.358 45.874,36.772 45.434,35.918 45.808 M97.861 62.011 C 97.714 62.096,96.992 62.222,96.257 62.292 C 95.521 62.362,94.840 62.484,94.742 62.563 C 94.643 62.642,94.202 62.747,93.761 62.796 C 92.861 62.895,91.588 63.206,91.126 63.438 C 90.958 63.523,90.499 63.691,90.107 63.811 C 86.008 65.069,80.735 68.881,77.889 72.644 C 75.747 75.478,73.452 80.126,73.443 81.649 C 73.441 81.899,73.348 82.196,73.235 82.309 C 72.955 82.589,72.704 83.939,72.613 85.651 C 72.572 86.435,72.455 87.241,72.354 87.441 C 72.076 87.996,72.419 95.117,72.740 95.446 C 72.831 95.539,72.906 95.882,72.906 96.209 C 72.906 96.536,73.026 97.091,73.173 97.443 C 73.320 97.795,73.440 98.269,73.440 98.496 C 73.440 98.723,73.520 98.959,73.619 99.020 C 73.717 99.080,73.797 99.320,73.797 99.552 C 73.797 99.784,73.917 100.095,74.064 100.242 C 74.211 100.389,74.332 100.590,74.332 100.689 C 74.332 102.623,79.542 109.492,82.709 111.735 C 83.347 112.186,83.908 112.604,83.957 112.663 C 84.006 112.723,84.327 112.926,84.670 113.115 C 85.013 113.304,85.334 113.502,85.383 113.555 C 85.496 113.678,88.574 115.133,89.929 115.705 C 90.751 116.051,91.916 116.394,92.280 116.397 C 92.495 116.398,92.720 116.480,92.781 116.578 C 92.841 116.676,93.191 116.756,93.558 116.756 C 93.925 116.756,94.322 116.853,94.441 116.972 C 94.736 117.267,96.431 117.488,99.153 117.585 C 100.403 117.630,101.426 117.743,101.426 117.835 C 101.426 117.930,102.209 118.004,103.209 118.004 C 104.278 118.004,104.991 117.932,104.991 117.825 C 104.991 117.716,105.849 117.647,107.209 117.647 C 108.495 117.647,109.473 117.572,109.537 117.469 C 109.597 117.371,110.023 117.290,110.483 117.289 C 110.943 117.289,111.549 117.169,111.830 117.022 C 112.110 116.876,112.567 116.756,112.844 116.756 C 113.121 116.756,113.398 116.676,113.458 116.578 C 113.519 116.480,113.805 116.399,114.095 116.399 C 114.385 116.399,114.761 116.331,114.931 116.247 C 115.513 115.961,116.488 115.546,117.112 115.319 C 117.646 115.124,118.511 114.685,120.047 113.831 C 120.239 113.724,120.505 113.536,120.639 113.414 C 120.772 113.291,120.940 113.191,121.013 113.191 C 121.086 113.191,121.300 113.050,121.491 112.879 C 121.681 112.707,122.157 112.333,122.549 112.048 C 125.661 109.780,126.158 108.652,124.727 107.104 C 124.215 106.551,123.155 105.399,122.371 104.546 C 116.781 98.461,116.925 98.554,115.330 99.994 C 114.791 100.481,114.259 100.882,114.148 100.885 C 114.038 100.889,113.844 101.016,113.717 101.169 C 113.590 101.322,113.239 101.558,112.938 101.694 C 112.636 101.830,112.188 102.059,111.943 102.203 C 111.698 102.347,111.176 102.598,110.784 102.760 C 110.392 102.922,109.911 103.123,109.715 103.207 C 107.773 104.039,99.295 104.299,98.826 103.540 C 98.774 103.456,98.511 103.387,98.243 103.387 C 97.974 103.387,97.678 103.320,97.585 103.238 C 97.492 103.156,97.014 102.942,96.524 102.761 C 94.616 102.059,92.625 100.480,91.423 98.717 C 90.612 97.527,90.606 97.504,91.141 97.504 C 91.366 97.504,91.627 97.431,91.720 97.342 C 91.813 97.252,92.331 97.139,92.870 97.089 C 94.364 96.951,96.111 96.629,96.329 96.452 C 96.436 96.365,96.925 96.249,97.415 96.194 C 99.485 95.962,102.563 95.359,102.778 95.143 C 102.852 95.069,103.335 95.009,103.852 95.009 C 104.369 95.009,104.834 94.940,104.886 94.856 C 104.938 94.772,105.474 94.658,106.076 94.604 C 106.679 94.549,107.258 94.417,107.365 94.311 C 107.471 94.205,107.927 94.118,108.378 94.118 C 108.829 94.118,109.274 94.044,109.367 93.955 C 109.460 93.866,109.978 93.752,110.517 93.703 C 111.674 93.598,113.330 93.254,113.768 93.029 C 113.938 92.942,114.475 92.870,114.960 92.870 C 115.446 92.870,115.886 92.801,115.938 92.717 C 115.990 92.633,116.481 92.518,117.030 92.461 C 117.579 92.405,118.123 92.281,118.239 92.187 C 118.354 92.092,118.850 91.970,119.340 91.916 C 120.717 91.762,122.249 91.496,123.619 91.173 C 124.305 91.012,125.307 90.810,125.847 90.724 C 128.527 90.300,128.760 90.240,128.992 89.923 C 129.312 89.486,129.333 85.005,129.018 84.436 C 128.900 84.222,128.746 83.605,128.675 83.066 C 128.444 81.287,127.118 77.162,126.737 77.035 C 126.640 77.002,126.560 76.833,126.560 76.659 C 126.560 76.485,126.379 76.070,126.159 75.738 C 125.938 75.406,125.640 74.893,125.497 74.599 C 125.129 73.842,123.585 71.700,122.800 70.856 C 122.435 70.463,121.989 69.975,121.808 69.770 C 120.806 68.633,116.946 65.775,116.413 65.775 C 116.307 65.775,116.221 65.707,116.221 65.624 C 116.221 65.541,115.880 65.331,115.463 65.157 C 114.709 64.843,113.025 64.083,112.436 63.790 C 112.265 63.706,112.014 63.636,111.877 63.636 C 111.739 63.636,111.397 63.517,111.117 63.370 C 110.836 63.224,110.390 63.103,110.126 63.103 C 109.863 63.102,109.597 63.021,109.537 62.923 C 109.476 62.825,109.126 62.745,108.760 62.745 C 108.393 62.745,108.016 62.673,107.923 62.586 C 107.432 62.124,98.545 61.616,97.861 62.011 M103.322 75.133 C 103.603 75.279,104.129 75.399,104.490 75.400 C 104.852 75.401,105.198 75.481,105.258 75.579 C 105.319 75.677,105.504 75.759,105.670 75.760 C 106.839 75.769,111.586 79.365,111.586 80.242 C 111.586 80.331,111.727 80.619,111.898 80.881 C 112.192 81.328,112.647 82.459,112.653 82.754 C 112.655 82.828,112.300 82.888,111.864 82.888 C 111.429 82.888,111.023 82.968,110.963 83.066 C 110.902 83.164,110.455 83.244,109.969 83.244 C 109.483 83.244,108.947 83.321,108.777 83.414 C 108.400 83.621,105.600 84.158,103.239 84.475 C 102.619 84.559,102.021 84.717,101.911 84.827 C 101.801 84.937,101.342 85.027,100.891 85.027 C 100.440 85.027,99.995 85.100,99.902 85.189 C 99.809 85.278,99.332 85.393,98.841 85.445 C 97.559 85.581,95.722 85.966,95.722 86.100 C 95.722 86.162,95.267 86.232,94.710 86.254 C 94.154 86.277,93.558 86.371,93.385 86.463 C 93.213 86.555,92.763 86.631,92.386 86.631 C 92.010 86.631,91.542 86.743,91.347 86.879 C 91.152 87.016,90.532 87.157,89.970 87.191 L 88.948 87.255 88.948 86.266 C 88.948 85.721,89.038 85.186,89.148 85.077 C 89.327 84.898,89.472 84.387,89.782 82.843 C 89.836 82.574,89.951 82.353,90.038 82.353 C 90.125 82.353,90.196 82.268,90.196 82.163 C 90.196 80.946,93.246 77.451,95.098 76.547 C 95.686 76.260,96.194 75.965,96.227 75.891 C 96.260 75.818,96.476 75.758,96.707 75.758 C 96.938 75.758,97.176 75.677,97.237 75.579 C 97.298 75.481,97.643 75.400,98.005 75.398 C 98.367 75.397,98.864 75.285,99.109 75.149 C 99.746 74.795,102.653 74.784,103.322 75.133 M281.016 128.651 C 280.114 128.876,280.164 129.864,281.118 130.670 C 281.518 131.007,282.020 131.444,282.234 131.640 C 282.449 131.836,283.144 132.438,283.780 132.977 C 284.416 133.516,285.097 134.105,285.293 134.285 C 285.490 134.465,285.962 134.866,286.343 135.176 C 287.079 135.775,287.175 135.858,289.036 137.517 C 289.692 138.103,290.402 138.701,290.614 138.847 C 291.184 139.240,292.513 140.502,292.513 140.650 C 292.513 140.791,287.632 144.093,286.631 144.629 C 286.288 144.812,285.980 145.033,285.948 145.120 C 285.915 145.206,285.813 145.276,285.721 145.276 C 285.630 145.276,285.227 145.483,284.827 145.735 C 284.427 145.988,283.739 146.396,283.298 146.642 C 282.857 146.889,282.123 147.316,281.667 147.591 C 280.403 148.356,274.418 151.305,272.906 151.909 C 272.203 152.190,271.241 152.610,270.903 152.783 C 270.732 152.870,270.467 152.941,270.312 152.941 C 270.158 152.941,269.615 153.129,269.107 153.359 C 268.279 153.732,266.045 154.475,264.349 154.941 C 264.006 155.035,263.479 155.185,263.178 155.275 C 262.877 155.364,262.488 155.437,262.314 155.437 C 262.139 155.437,261.744 155.551,261.435 155.691 C 260.875 155.945,260.148 156.077,258.289 156.264 C 257.750 156.319,257.225 156.431,257.123 156.515 C 257.021 156.598,256.196 156.722,255.290 156.790 C 254.384 156.859,253.601 156.983,253.549 157.067 C 253.420 157.276,245.524 157.260,244.843 157.050 C 244.542 156.957,243.654 156.794,242.870 156.688 C 242.086 156.583,241.003 156.421,240.463 156.329 C 239.924 156.237,239.162 156.113,238.770 156.053 C 238.378 155.993,237.804 155.830,237.495 155.690 C 237.186 155.551,236.831 155.437,236.706 155.437 C 236.581 155.437,236.192 155.344,235.842 155.232 C 234.850 154.912,232.748 154.177,232.353 154.011 C 229.788 152.935,225.903 150.973,225.290 150.446 C 225.119 150.299,224.673 150.018,224.299 149.822 C 223.925 149.626,223.512 149.365,223.382 149.242 C 223.252 149.118,222.981 148.929,222.780 148.822 C 222.478 148.661,221.765 148.158,220.588 147.277 C 218.238 145.519,214.102 141.524,211.874 138.859 C 211.177 138.026,210.564 137.304,210.512 137.255 C 210.421 137.170,209.438 135.830,208.620 134.675 C 208.410 134.378,207.808 133.426,207.283 132.560 C 206.176 130.733,205.873 130.490,205.352 131.012 C 204.942 131.422,204.882 132.195,205.220 132.714 C 205.346 132.908,205.553 133.387,205.680 133.779 C 205.808 134.171,206.031 134.773,206.177 135.116 C 206.322 135.459,206.507 135.900,206.587 136.096 C 206.667 136.292,206.975 136.974,207.270 137.611 C 207.566 138.249,207.989 139.198,208.210 139.721 C 208.975 141.527,212.416 147.917,212.988 148.591 C 213.078 148.698,213.280 149.032,213.435 149.332 C 213.591 149.633,213.780 149.906,213.855 149.939 C 213.931 149.973,214.144 150.297,214.328 150.660 C 214.513 151.023,214.794 151.466,214.952 151.644 C 215.111 151.821,215.539 152.407,215.903 152.944 C 216.268 153.482,216.749 154.122,216.973 154.367 C 217.197 154.612,217.617 155.134,217.906 155.526 C 219.247 157.341,222.157 160.423,224.050 162.032 C 224.569 162.473,225.165 163.004,225.375 163.211 C 225.586 163.418,226.239 163.933,226.827 164.357 C 227.415 164.780,227.937 165.178,227.986 165.242 C 228.035 165.305,228.336 165.508,228.654 165.694 C 228.973 165.879,229.234 166.093,229.234 166.170 C 229.234 166.247,229.317 166.310,229.419 166.310 C 229.521 166.310,229.822 166.458,230.087 166.639 C 231.450 167.566,232.189 167.990,234.306 169.062 C 235.576 169.706,236.704 170.232,236.813 170.232 C 236.921 170.232,237.426 170.432,237.934 170.677 C 238.442 170.922,238.973 171.123,239.115 171.123 C 239.257 171.123,239.422 171.203,239.483 171.301 C 239.544 171.399,239.783 171.480,240.014 171.480 C 240.245 171.480,240.662 171.592,240.939 171.729 C 241.665 172.088,242.646 172.371,243.165 172.371 C 243.411 172.371,243.672 172.430,243.744 172.502 C 244.098 172.856,247.505 173.432,249.981 173.555 C 251.173 173.615,251.826 173.726,251.999 173.898 C 252.380 174.280,260.292 174.268,261.028 173.885 C 261.378 173.702,262.080 173.619,263.265 173.619 C 264.214 173.619,265.067 173.545,265.160 173.455 C 265.254 173.365,265.851 173.254,266.488 173.209 C 267.126 173.164,268.209 172.991,268.895 172.825 C 269.581 172.659,270.463 172.485,270.856 172.437 C 271.248 172.389,271.729 172.281,271.925 172.197 C 272.121 172.112,272.602 171.998,272.993 171.944 C 273.385 171.889,273.732 171.762,273.766 171.662 C 273.799 171.562,274.136 171.480,274.514 171.480 C 274.892 171.480,275.251 171.399,275.312 171.301 C 275.373 171.203,275.682 171.123,276.000 171.123 C 276.318 171.123,276.654 171.053,276.747 170.968 C 276.840 170.882,277.398 170.671,277.986 170.497 C 280.186 169.849,280.757 169.650,280.851 169.497 C 280.904 169.411,281.139 169.340,281.373 169.340 C 281.606 169.340,281.847 169.260,281.907 169.162 C 281.968 169.064,282.195 168.984,282.413 168.984 C 282.630 168.984,282.967 168.879,283.160 168.750 C 283.353 168.622,283.873 168.407,284.314 168.273 C 284.755 168.138,285.196 167.974,285.294 167.907 C 285.392 167.840,285.693 167.733,285.963 167.668 C 286.232 167.604,286.453 167.472,286.453 167.376 C 286.453 167.280,286.614 167.201,286.812 167.201 C 287.009 167.201,287.310 167.124,287.480 167.030 C 287.650 166.936,288.271 166.649,288.859 166.392 C 290.275 165.773,295.430 163.247,295.544 163.115 C 295.593 163.059,296.134 162.777,296.747 162.490 C 297.360 162.202,297.861 161.918,297.861 161.858 C 297.861 161.798,298.222 161.600,298.663 161.418 C 299.104 161.236,299.465 161.019,299.465 160.936 C 299.465 160.852,299.541 160.784,299.633 160.784 C 299.726 160.784,300.949 160.069,302.352 159.195 C 305.007 157.541,305.526 157.430,305.526 158.518 C 305.526 158.736,306.106 160.307,306.626 161.497 C 306.734 161.742,306.899 162.143,306.994 162.389 C 307.164 162.825,307.427 163.461,307.804 164.349 C 307.908 164.594,308.132 165.179,308.301 165.648 C 308.471 166.116,308.677 166.542,308.761 166.594 C 308.844 166.645,308.913 166.844,308.913 167.036 C 308.913 167.228,308.981 167.524,309.065 167.694 C 309.383 168.342,309.781 169.290,310.169 170.321 C 310.984 172.488,311.401 173.267,311.860 173.475 C 312.664 173.842,312.867 173.405,313.369 170.232 C 313.454 169.693,313.658 168.690,313.821 168.004 C 313.985 167.317,314.158 166.355,314.206 165.865 C 314.254 165.374,314.366 164.897,314.455 164.804 C 314.544 164.711,314.617 164.225,314.617 163.725 C 314.617 163.225,314.702 162.731,314.807 162.626 C 314.984 162.449,315.109 161.864,315.503 159.358 C 315.587 158.819,315.789 157.816,315.951 157.130 C 316.273 155.761,316.539 154.229,316.693 152.852 C 316.748 152.362,316.864 151.873,316.951 151.766 C 317.038 151.659,317.195 151.057,317.299 150.429 C 317.403 149.801,317.567 148.806,317.664 148.217 C 317.762 147.629,317.887 146.748,317.942 146.258 C 317.998 145.769,318.155 145.209,318.291 145.015 C 318.427 144.821,318.538 144.284,318.538 143.821 C 318.538 143.359,318.619 142.930,318.717 142.870 C 318.815 142.809,318.895 142.379,318.895 141.915 C 318.895 141.450,318.976 140.988,319.076 140.888 C 319.176 140.789,319.339 140.151,319.439 139.471 C 319.540 138.791,319.703 137.794,319.804 137.255 C 319.904 136.716,320.029 135.833,320.082 135.294 C 320.135 134.755,320.267 134.205,320.376 134.072 C 320.639 133.751,320.884 132.128,320.918 130.481 L 320.945 129.144 308.378 129.099 C 297.665 129.060,295.728 129.014,295.249 128.787 C 294.697 128.525,282.006 128.404,281.016 128.651 " stroke="none" fill="#04cc3c" fill-rule="evenodd"></path><path id="path1" d="M267.673 5.649 C 267.594 5.729,266.313 5.848,264.825 5.914 C 261.309 6.072,259.223 6.303,258.962 6.564 C 258.847 6.679,258.292 6.774,257.729 6.774 C 257.166 6.774,256.656 6.854,256.595 6.952 C 256.535 7.050,256.144 7.130,255.728 7.130 C 255.311 7.130,254.814 7.248,254.624 7.392 C 254.434 7.536,253.982 7.656,253.620 7.659 C 253.258 7.662,252.913 7.745,252.852 7.843 C 252.791 7.941,252.430 8.021,252.050 8.021 C 251.669 8.021,251.308 8.102,251.248 8.200 C 251.187 8.298,250.917 8.378,250.647 8.378 C 250.378 8.378,250.002 8.496,249.811 8.640 C 249.621 8.784,249.311 8.904,249.121 8.907 C 248.689 8.914,247.659 9.228,247.000 9.554 C 246.722 9.692,246.317 9.804,246.100 9.804 C 245.882 9.804,245.628 9.872,245.535 9.954 C 245.442 10.037,244.904 10.245,244.341 10.416 C 243.777 10.588,243.271 10.801,243.216 10.890 C 243.161 10.979,242.925 11.052,242.692 11.052 C 242.458 11.052,242.217 11.132,242.157 11.230 C 242.096 11.328,241.933 11.408,241.795 11.408 C 241.656 11.408,241.079 11.617,240.513 11.872 C 239.946 12.128,239.283 12.417,239.037 12.515 C 238.501 12.730,237.854 13.016,236.525 13.625 C 235.976 13.876,235.435 14.082,235.321 14.082 C 235.208 14.082,235.116 14.162,235.116 14.260 C 235.116 14.358,235.002 14.439,234.863 14.439 C 234.629 14.439,233.538 14.947,233.333 15.152 C 233.128 15.357,232.429 15.686,232.199 15.686 C 232.063 15.686,231.851 15.807,231.729 15.954 C 231.607 16.101,231.357 16.221,231.172 16.221 C 230.988 16.221,230.838 16.301,230.838 16.399 C 230.838 16.497,230.729 16.578,230.596 16.578 C 230.463 16.578,229.641 16.990,228.769 17.494 C 227.897 17.997,226.823 18.610,226.381 18.856 C 225.940 19.102,225.035 19.652,224.371 20.079 C 223.706 20.506,223.124 20.856,223.079 20.856 C 223.033 20.856,222.591 21.146,222.096 21.502 C 221.602 21.857,221.170 22.118,221.137 22.081 C 221.020 21.950,220.183 20.034,219.784 18.984 C 219.560 18.396,219.261 17.634,219.118 17.291 C 218.975 16.947,218.778 16.466,218.680 16.221 C 218.581 15.976,218.397 15.535,218.270 15.241 C 218.142 14.947,217.823 14.144,217.559 13.458 C 217.295 12.772,217.024 12.130,216.955 12.032 C 216.886 11.934,216.727 11.533,216.600 11.141 C 216.473 10.749,216.251 10.147,216.105 9.804 C 215.564 8.529,215.299 7.873,214.976 7.012 C 214.553 5.885,213.191 6.088,213.191 7.279 C 213.191 7.648,213.103 8.038,212.995 8.146 C 212.811 8.329,212.571 9.581,212.369 11.408 C 212.321 11.849,212.206 12.371,212.114 12.567 C 212.023 12.763,211.862 13.405,211.757 13.993 C 211.652 14.581,211.486 15.504,211.388 16.043 C 211.291 16.582,211.167 17.424,211.113 17.914 C 211.059 18.405,210.933 18.907,210.832 19.030 C 210.731 19.154,210.581 19.755,210.499 20.367 C 210.178 22.741,210.056 23.448,209.932 23.646 C 209.861 23.760,209.720 24.361,209.617 24.983 C 209.514 25.605,209.350 26.555,209.252 27.094 C 209.154 27.634,209.032 28.436,208.981 28.877 C 208.930 29.318,208.773 29.932,208.633 30.241 C 208.493 30.550,208.378 31.127,208.378 31.523 C 208.378 31.919,208.298 32.292,208.200 32.353 C 208.102 32.414,208.021 32.895,208.021 33.422 C 208.021 33.950,207.941 34.431,207.843 34.492 C 207.745 34.553,207.665 34.982,207.665 35.447 C 207.665 35.912,207.575 36.382,207.465 36.492 C 207.285 36.672,207.149 37.417,206.835 39.929 C 206.780 40.370,206.656 40.828,206.560 40.947 C 206.463 41.066,206.340 41.650,206.286 42.244 C 206.233 42.839,206.120 43.368,206.035 43.420 C 205.951 43.472,205.882 43.947,205.882 44.474 C 205.882 45.002,205.802 45.483,205.704 45.544 C 205.606 45.604,205.526 46.056,205.526 46.547 C 205.526 47.104,205.425 47.542,205.258 47.708 C 204.878 48.089,204.887 50.316,205.271 50.700 C 205.699 51.128,245.103 51.128,245.531 50.700 C 246.069 50.162,245.398 49.229,243.229 47.500 C 242.741 47.110,242.171 46.631,241.964 46.435 C 241.334 45.838,239.338 44.111,237.638 42.692 C 237.403 42.496,236.990 42.135,236.720 41.889 C 236.449 41.644,235.838 41.111,235.360 40.705 C 234.883 40.298,234.263 39.767,233.983 39.525 L 233.475 39.084 234.073 38.638 C 234.401 38.394,234.911 38.044,235.205 37.862 C 235.499 37.680,235.780 37.482,235.829 37.423 C 235.878 37.363,236.600 36.883,237.433 36.356 C 238.266 35.828,238.988 35.353,239.037 35.299 C 239.086 35.246,239.433 35.042,239.807 34.847 C 240.181 34.652,240.622 34.371,240.787 34.222 C 240.952 34.074,241.428 33.801,241.845 33.616 C 242.262 33.431,242.602 33.211,242.602 33.128 C 242.602 33.045,242.673 32.977,242.759 32.977 C 242.845 32.977,243.752 32.509,244.775 31.938 C 245.798 31.367,247.132 30.665,247.738 30.379 C 248.345 30.092,248.841 29.798,248.841 29.724 C 248.841 29.650,248.971 29.590,249.129 29.590 C 249.287 29.590,249.789 29.398,250.243 29.164 C 250.698 28.929,251.390 28.600,251.783 28.433 C 252.175 28.266,252.816 27.985,253.209 27.809 C 253.601 27.633,254.305 27.349,254.774 27.176 C 255.243 27.004,255.669 26.795,255.720 26.712 C 255.772 26.628,256.005 26.560,256.239 26.560 C 256.472 26.560,256.713 26.480,256.774 26.381 C 256.834 26.283,257.075 26.203,257.308 26.203 C 257.542 26.203,257.783 26.123,257.843 26.025 C 257.904 25.927,258.134 25.847,258.354 25.847 C 258.575 25.847,258.911 25.729,259.101 25.585 C 259.292 25.441,259.663 25.321,259.927 25.318 C 260.191 25.314,260.456 25.232,260.517 25.134 C 260.578 25.036,260.848 24.955,261.117 24.955 C 261.387 24.955,261.763 24.838,261.953 24.694 C 262.144 24.550,262.544 24.429,262.843 24.426 C 263.142 24.423,263.463 24.349,263.556 24.261 C 263.649 24.173,264.046 24.056,264.439 24.000 C 266.713 23.680,267.187 23.585,267.406 23.405 C 267.538 23.295,268.209 23.157,268.895 23.098 C 269.581 23.039,271.105 22.904,272.282 22.798 C 275.019 22.551,278.848 22.550,281.462 22.796 C 282.589 22.903,284.033 23.039,284.670 23.098 C 285.307 23.158,285.936 23.295,286.066 23.402 C 286.283 23.580,286.972 23.731,288.816 24.003 C 289.184 24.057,289.530 24.174,289.584 24.261 C 289.638 24.349,289.872 24.421,290.103 24.421 C 290.334 24.421,290.791 24.555,291.117 24.718 C 292.232 25.277,292.331 25.312,292.778 25.312 C 293.025 25.312,293.226 25.386,293.226 25.476 C 293.226 25.566,293.466 25.693,293.759 25.757 C 294.052 25.821,294.338 25.948,294.394 26.039 C 294.449 26.129,294.686 26.203,294.920 26.203 C 295.153 26.203,295.394 26.283,295.455 26.381 C 295.515 26.480,295.714 26.560,295.896 26.560 C 296.078 26.560,296.254 26.623,296.286 26.700 C 296.319 26.776,296.827 27.087,297.415 27.390 C 299.342 28.381,300.088 28.786,300.178 28.890 C 300.227 28.947,300.548 29.147,300.891 29.336 C 301.234 29.525,301.555 29.727,301.604 29.786 C 301.653 29.845,302.079 30.106,302.550 30.367 C 303.021 30.628,303.622 31.041,303.885 31.285 C 304.148 31.529,304.465 31.729,304.588 31.729 C 304.712 31.729,304.813 31.789,304.814 31.863 C 304.815 31.936,305.094 32.186,305.434 32.418 C 305.775 32.650,306.204 32.971,306.388 33.131 C 306.572 33.291,307.236 33.863,307.862 34.401 C 310.467 36.638,313.407 39.705,315.375 42.238 C 315.646 42.585,316.047 43.102,316.267 43.386 C 316.606 43.823,317.027 44.432,318.190 46.168 C 318.288 46.315,318.708 46.955,319.123 47.591 C 320.123 49.125,321.034 49.254,321.034 47.861 C 321.034 47.235,320.841 46.682,319.804 44.342 C 319.598 43.878,319.430 43.452,319.430 43.395 C 319.430 43.339,319.240 42.877,319.009 42.368 C 318.777 41.860,318.531 41.263,318.462 41.043 C 318.393 40.822,318.261 40.642,318.170 40.642 C 318.078 40.642,318.004 40.520,318.004 40.372 C 318.004 40.224,317.928 39.963,317.835 39.793 C 317.742 39.622,317.269 38.681,316.784 37.701 C 315.406 34.917,314.895 33.962,314.750 33.898 C 314.677 33.865,314.617 33.763,314.617 33.671 C 314.617 33.390,311.969 29.183,311.731 29.085 C 311.651 29.052,311.586 28.945,311.586 28.846 C 311.586 28.621,309.037 25.069,308.351 24.337 C 308.073 24.040,307.844 23.733,307.844 23.655 C 307.842 23.297,301.865 17.345,300.156 16.000 C 299.629 15.585,299.092 15.144,298.962 15.020 C 298.833 14.896,298.672 14.795,298.606 14.795 C 298.539 14.795,298.245 14.589,297.953 14.337 C 297.660 14.085,297.119 13.710,296.750 13.502 C 296.380 13.295,296.078 13.060,296.078 12.980 C 296.078 12.900,295.977 12.834,295.852 12.834 C 295.728 12.834,295.307 12.617,294.917 12.350 C 294.311 11.938,293.527 11.507,291.298 10.360 C 290.351 9.873,290.190 9.804,290.008 9.804 C 289.901 9.804,289.694 9.684,289.547 9.537 C 289.400 9.389,289.129 9.269,288.946 9.269 C 288.763 9.269,288.563 9.189,288.503 9.091 C 288.442 8.993,288.197 8.913,287.957 8.913 C 287.718 8.913,287.522 8.836,287.522 8.742 C 287.522 8.649,287.241 8.519,286.896 8.455 C 286.552 8.390,286.227 8.266,286.173 8.179 C 286.119 8.093,285.844 8.021,285.561 8.021 C 285.279 8.021,284.998 7.941,284.938 7.843 C 284.877 7.745,284.558 7.665,284.229 7.665 C 283.900 7.665,283.601 7.577,283.565 7.469 C 283.529 7.361,283.120 7.230,282.655 7.178 C 282.190 7.126,281.767 7.013,281.714 6.928 C 281.662 6.843,281.239 6.774,280.774 6.774 C 280.309 6.774,279.837 6.682,279.725 6.570 C 279.290 6.135,268.044 5.276,267.673 5.649 M138.595 43.019 C 138.215 43.597,138.265 116.590,138.645 116.970 C 139.016 117.340,153.958 117.306,154.193 116.934 C 154.286 116.787,154.366 115.664,154.370 114.439 C 154.377 112.651,154.422 112.266,154.596 112.490 C 154.899 112.881,157.315 114.617,157.556 114.617 C 157.665 114.617,157.754 114.693,157.754 114.787 C 157.754 114.985,160.620 116.399,161.024 116.399 C 161.175 116.399,161.348 116.480,161.408 116.578 C 161.469 116.676,161.734 116.758,161.998 116.761 C 162.262 116.765,162.633 116.885,162.824 117.029 C 163.014 117.173,163.511 117.291,163.927 117.291 C 164.344 117.291,164.734 117.371,164.795 117.469 C 164.856 117.567,165.649 117.647,166.561 117.647 C 167.732 117.647,168.386 117.732,168.797 117.937 C 169.456 118.265,171.707 118.204,172.063 117.848 C 172.184 117.726,172.949 117.647,174.000 117.647 C 174.965 117.647,175.785 117.568,175.847 117.469 C 175.907 117.371,176.298 117.291,176.714 117.291 C 177.131 117.291,177.628 117.173,177.818 117.029 C 178.008 116.885,178.380 116.765,178.644 116.761 C 178.907 116.758,179.173 116.676,179.234 116.578 C 179.294 116.480,179.541 116.399,179.781 116.399 C 180.022 116.399,180.358 116.331,180.528 116.247 C 180.820 116.104,181.059 115.997,182.799 115.234 C 183.191 115.061,183.552 114.872,183.601 114.813 C 183.650 114.754,184.108 114.487,184.619 114.218 C 188.301 112.288,192.204 108.050,194.365 103.636 C 194.745 102.862,195.125 102.089,195.210 101.919 C 195.296 101.748,195.368 101.468,195.371 101.295 C 195.374 101.122,195.495 100.825,195.638 100.634 C 195.782 100.444,195.900 100.108,195.900 99.887 C 195.900 99.667,195.980 99.437,196.078 99.376 C 196.176 99.316,196.257 98.966,196.257 98.599 C 196.257 98.232,196.333 97.856,196.426 97.763 C 197.301 96.886,197.302 83.546,196.427 81.954 C 196.333 81.784,196.257 81.447,196.257 81.205 C 196.257 80.963,196.185 80.581,196.098 80.356 C 195.741 79.435,195.315 78.321,195.192 77.986 C 193.161 72.453,188.398 67.346,182.709 64.600 C 181.974 64.246,181.233 63.883,181.063 63.796 C 180.893 63.708,180.586 63.636,180.382 63.636 C 180.177 63.636,179.890 63.516,179.743 63.369 C 179.596 63.222,179.245 63.102,178.964 63.102 C 178.683 63.102,178.403 63.021,178.342 62.923 C 178.282 62.825,177.932 62.745,177.565 62.745 C 177.198 62.745,176.822 62.669,176.728 62.575 C 176.224 62.071,168.568 61.638,166.756 62.012 C 166.266 62.113,165.423 62.283,164.884 62.389 C 164.345 62.496,163.703 62.624,163.458 62.673 C 162.565 62.852,161.141 63.357,161.141 63.495 C 161.141 63.573,160.986 63.636,160.797 63.636 C 160.008 63.636,156.036 66.061,155.395 66.934 C 155.323 67.032,155.263 61.758,155.261 55.214 C 155.259 43.555,155.251 43.308,154.902 42.959 C 154.556 42.613,154.308 42.602,146.706 42.602 L 138.867 42.602 138.595 43.019 M334.977 42.880 L 334.581 43.157 334.581 79.833 C 334.581 111.227,334.618 116.559,334.834 116.855 C 335.180 117.329,350.865 117.404,351.162 116.934 C 351.261 116.778,351.333 113.872,351.334 109.952 C 351.336 105.249,351.395 103.219,351.532 103.173 C 351.639 103.137,353.129 101.707,354.841 99.994 L 357.955 96.881 358.578 97.594 C 359.436 98.575,360.749 100.194,363.131 103.209 C 364.866 105.405,364.959 105.521,365.775 106.497 C 366.119 106.907,366.600 107.515,366.845 107.848 C 367.090 108.180,367.533 108.737,367.830 109.084 C 368.127 109.431,368.687 110.116,369.074 110.606 C 369.462 111.096,369.861 111.583,369.961 111.688 C 370.061 111.793,370.704 112.585,371.390 113.447 C 373.300 115.847,374.329 117.011,374.657 117.144 C 375.519 117.494,393.398 117.297,393.761 116.934 C 394.266 116.429,394.205 115.966,393.533 115.197 C 393.211 114.829,392.590 114.046,392.152 113.458 C 391.715 112.870,390.995 111.937,390.553 111.384 C 390.112 110.831,389.269 109.767,388.681 109.018 C 388.093 108.270,387.291 107.270,386.898 106.796 C 386.506 106.322,385.865 105.510,385.472 104.993 C 384.375 103.544,383.122 101.946,382.465 101.159 C 382.139 100.766,381.325 99.724,380.656 98.841 C 379.988 97.959,379.393 97.197,379.334 97.148 C 379.274 97.099,378.799 96.509,378.277 95.838 C 377.755 95.166,377.222 94.484,377.092 94.323 C 376.963 94.161,376.473 93.547,376.003 92.959 C 375.534 92.371,375.082 91.809,375.000 91.711 C 374.917 91.613,374.525 91.092,374.129 90.553 C 373.733 90.013,373.137 89.251,372.803 88.859 C 371.590 87.430,370.588 86.116,370.588 85.953 C 370.588 85.809,382.868 73.287,389.706 66.458 C 391.554 64.612,391.979 64.093,391.979 63.681 C 391.979 62.718,392.260 62.745,382.094 62.747 L 372.638 62.748 371.020 64.306 C 370.130 65.163,368.506 66.707,367.411 67.736 C 365.338 69.685,363.590 71.339,361.318 73.503 C 355.923 78.641,353.646 80.808,352.615 81.786 L 351.426 82.912 351.381 62.997 C 351.348 48.641,351.280 43.016,351.136 42.843 C 350.816 42.457,335.531 42.492,334.977 42.880 M39.267 60.025 C 39.834 60.060,40.716 60.060,41.228 60.024 C 41.739 59.988,41.275 59.959,40.196 59.960 C 39.118 59.960,38.699 59.989,39.267 60.025 M227.807 62.033 C 227.562 62.116,226.820 62.236,226.159 62.300 C 225.497 62.364,224.955 62.491,224.955 62.581 C 224.955 62.671,224.620 62.745,224.211 62.745 C 223.423 62.745,222.522 62.974,221.688 63.387 C 221.410 63.524,220.994 63.636,220.763 63.636 C 220.531 63.636,220.292 63.717,220.232 63.815 C 220.171 63.913,220.008 63.993,219.870 63.993 C 219.055 63.993,213.509 66.998,212.656 67.902 C 212.509 68.057,211.947 68.520,211.408 68.929 C 210.459 69.650,208.500 71.673,207.894 72.560 C 207.730 72.799,207.548 73.035,207.488 73.084 C 206.584 73.825,203.387 80.236,203.387 81.307 C 203.387 81.468,203.267 81.829,203.121 82.110 C 202.974 82.391,202.854 82.916,202.853 83.278 C 202.853 83.640,202.772 83.986,202.674 84.046 C 202.576 84.107,202.496 84.737,202.496 85.447 C 202.496 86.242,202.410 86.823,202.273 86.961 C 201.967 87.266,201.962 92.284,202.266 92.887 C 202.385 93.123,202.518 93.877,202.560 94.563 C 202.659 96.145,202.917 97.463,203.182 97.727 C 203.294 97.840,203.387 98.091,203.387 98.285 C 203.387 98.763,203.756 99.914,204.367 101.337 C 204.996 102.804,205.231 103.305,205.329 103.387 C 205.388 103.436,205.588 103.757,205.772 104.100 C 207.097 106.566,210.891 110.811,212.885 112.060 C 213.298 112.319,213.676 112.583,213.725 112.646 C 213.895 112.864,216.135 114.182,217.201 114.691 C 217.790 114.971,218.410 115.270,218.580 115.354 C 218.751 115.439,219.011 115.508,219.160 115.508 C 219.308 115.508,219.430 115.573,219.430 115.653 C 219.430 115.732,219.931 115.938,220.544 116.111 C 221.156 116.284,221.842 116.500,222.067 116.591 C 222.292 116.682,222.697 116.756,222.967 116.756 C 223.237 116.756,223.554 116.852,223.671 116.969 C 223.965 117.262,225.548 117.490,227.982 117.588 C 229.286 117.640,230.076 117.747,230.159 117.881 C 230.346 118.183,233.544 118.173,233.645 117.870 C 233.699 117.708,234.301 117.647,235.833 117.647 C 237.050 117.647,237.994 117.571,238.057 117.469 C 238.118 117.371,238.503 117.290,238.914 117.289 C 239.325 117.289,239.891 117.169,240.172 117.022 C 240.453 116.876,240.909 116.756,241.186 116.756 C 241.463 116.756,241.740 116.676,241.800 116.578 C 241.861 116.480,242.071 116.399,242.268 116.399 C 242.795 116.399,244.385 115.849,244.385 115.666 C 244.385 115.579,244.535 115.508,244.719 115.508 C 244.903 115.508,245.805 115.119,246.725 114.645 C 249.096 113.420,249.204 113.356,250.431 112.472 C 251.577 111.645,251.686 111.558,253.283 110.187 C 254.335 109.284,257.010 106.011,257.523 104.999 C 257.699 104.652,257.895 104.327,257.957 104.278 C 258.267 104.037,259.893 100.467,259.893 100.029 C 259.893 99.841,260.005 99.594,260.142 99.481 C 260.278 99.367,260.434 99.017,260.488 98.701 C 260.542 98.386,260.668 97.767,260.768 97.326 C 260.868 96.885,261.037 96.043,261.145 95.455 C 261.252 94.866,261.415 94.139,261.508 93.838 C 261.736 93.092,261.727 86.327,261.497 86.185 C 261.399 86.125,261.319 85.739,261.319 85.327 C 261.319 84.915,261.231 84.299,261.123 83.956 C 261.015 83.614,260.859 83.012,260.776 82.620 C 260.375 80.717,260.287 80.382,260.133 80.173 C 260.042 80.048,259.861 79.626,259.731 79.234 C 259.109 77.361,256.798 73.449,255.410 71.921 C 254.404 70.814,251.694 68.196,251.373 68.021 C 251.206 67.930,251.029 67.800,250.980 67.733 C 250.829 67.524,247.965 65.775,247.774 65.775 C 247.675 65.775,247.593 65.715,247.592 65.642 C 247.590 65.568,247.250 65.358,246.834 65.174 C 246.418 64.990,245.676 64.649,245.185 64.416 C 244.693 64.183,244.156 63.993,243.992 63.993 C 243.828 63.993,243.643 63.913,243.583 63.815 C 243.522 63.717,243.237 63.636,242.948 63.636 C 242.660 63.636,242.424 63.563,242.424 63.473 C 242.424 63.256,240.729 62.843,237.968 62.385 C 237.331 62.279,236.467 62.116,236.049 62.023 C 235.119 61.816,228.426 61.824,227.807 62.033 M292.472 61.955 C 292.409 62.018,291.692 62.144,290.879 62.235 C 290.066 62.326,289.323 62.478,289.228 62.573 C 289.133 62.667,288.715 62.745,288.299 62.745 C 287.884 62.745,287.494 62.825,287.433 62.923 C 287.373 63.021,287.119 63.102,286.870 63.102 C 286.621 63.102,286.165 63.210,285.856 63.342 C 285.547 63.474,284.973 63.682,284.581 63.805 C 283.895 64.021,282.587 64.578,281.287 65.208 C 280.406 65.635,277.473 67.442,277.184 67.737 C 277.135 67.787,276.774 68.066,276.381 68.357 C 275.133 69.285,272.098 72.439,271.652 73.274 C 271.558 73.448,271.376 73.697,271.247 73.827 C 271.118 73.958,270.777 74.505,270.490 75.045 C 270.202 75.584,269.916 76.065,269.854 76.114 C 269.649 76.275,268.321 79.216,268.083 80.036 C 267.955 80.477,267.784 80.927,267.703 81.035 C 267.511 81.294,267.189 82.748,267.076 83.868 C 267.027 84.358,266.895 84.872,266.782 85.009 C 266.429 85.441,266.395 94.037,266.744 94.571 C 266.903 94.813,267.023 95.379,267.023 95.883 C 267.023 96.371,267.103 96.820,267.201 96.881 C 267.299 96.941,267.380 97.234,267.380 97.532 C 267.380 97.830,267.492 98.286,267.629 98.546 C 267.766 98.807,267.980 99.381,268.105 99.822 C 269.428 104.502,274.523 110.801,279.077 113.385 C 280.941 114.443,283.128 115.508,283.435 115.508 C 283.624 115.508,283.779 115.585,283.779 115.678 C 283.779 115.772,284.061 115.901,284.405 115.966 C 284.749 116.030,285.075 116.154,285.128 116.241 C 285.182 116.328,285.457 116.399,285.740 116.399 C 286.022 116.399,286.303 116.480,286.364 116.578 C 286.424 116.676,286.783 116.756,287.161 116.756 C 287.540 116.756,287.878 116.843,287.913 116.949 C 288.000 117.209,289.875 117.489,292.157 117.584 C 293.339 117.633,294.252 117.765,294.636 117.943 C 295.319 118.260,297.669 118.207,298.081 117.864 C 298.210 117.758,299.195 117.634,300.271 117.589 C 302.630 117.491,304.512 117.212,304.600 116.949 C 304.635 116.843,304.974 116.756,305.352 116.756 C 305.730 116.756,306.089 116.676,306.150 116.578 C 306.210 116.480,306.446 116.399,306.673 116.399 C 307.041 116.399,307.723 116.175,308.824 115.692 C 309.020 115.606,309.521 115.394,309.938 115.220 C 310.354 115.047,310.695 114.840,310.695 114.761 C 310.695 114.682,310.813 114.617,310.956 114.617 C 311.316 114.617,314.197 112.995,314.439 112.656 C 314.488 112.587,314.888 112.305,315.329 112.029 C 315.770 111.752,316.478 111.179,316.902 110.755 C 317.327 110.331,317.814 109.883,317.987 109.760 C 318.803 109.177,322.282 104.688,322.282 104.217 C 322.282 104.161,322.482 103.820,322.727 103.459 C 322.972 103.098,323.173 102.687,323.173 102.547 C 323.173 102.407,323.276 102.189,323.401 102.063 C 323.527 101.938,323.817 101.241,324.045 100.516 C 324.273 99.791,324.571 98.985,324.707 98.725 C 324.844 98.465,324.955 98.048,324.955 97.799 C 324.955 97.551,325.036 97.298,325.134 97.237 C 325.232 97.176,325.312 96.747,325.312 96.282 C 325.312 95.817,325.412 95.336,325.535 95.214 C 325.851 94.898,325.966 86.646,325.671 85.445 C 325.554 84.970,325.392 84.140,325.310 83.601 C 325.056 81.931,324.819 81.030,324.616 80.962 C 324.508 80.926,324.421 80.668,324.421 80.388 C 324.421 80.108,324.340 79.829,324.242 79.768 C 324.144 79.708,324.064 79.538,324.064 79.390 C 324.064 77.499,319.453 71.044,316.310 68.537 C 315.820 68.145,315.379 67.785,315.330 67.736 C 314.527 66.928,309.034 63.993,308.326 63.993 C 308.170 63.993,307.993 63.913,307.932 63.815 C 307.872 63.717,307.586 63.636,307.298 63.636 C 307.010 63.636,306.774 63.563,306.774 63.473 C 306.774 63.293,305.489 62.938,304.367 62.808 C 303.975 62.762,303.494 62.651,303.298 62.560 C 302.303 62.099,292.855 61.571,292.472 61.955 M10.584 67.825 C 10.584 68.904,10.613 69.322,10.649 68.755 C 10.684 68.187,10.684 67.305,10.648 66.794 C 10.612 66.283,10.583 66.747,10.584 67.825 M167.862 75.955 C 167.971 76.064,168.609 76.190,169.279 76.236 C 169.950 76.282,170.700 76.384,170.945 76.464 C 171.190 76.543,171.751 76.711,172.193 76.838 C 172.634 76.965,173.115 77.158,173.262 77.268 C 173.409 77.377,173.769 77.583,174.062 77.726 C 176.003 78.673,179.323 82.740,179.323 84.171 C 179.323 84.310,179.440 84.580,179.584 84.770 C 179.728 84.960,179.849 85.401,179.852 85.749 C 179.855 86.097,179.941 86.465,180.044 86.568 C 180.467 86.991,180.105 93.746,179.596 94.920 C 179.468 95.214,179.255 95.775,179.122 96.168 C 178.342 98.472,175.813 101.361,173.797 102.252 C 173.552 102.361,172.910 102.654,172.371 102.904 C 170.900 103.586,165.678 104.073,165.180 103.575 C 165.076 103.472,164.691 103.387,164.324 103.387 C 163.957 103.387,163.615 103.318,163.564 103.235 C 163.512 103.151,163.086 102.937,162.617 102.758 C 160.279 101.866,156.506 98.242,156.506 96.888 C 156.506 96.748,156.426 96.585,156.328 96.524 C 156.230 96.463,156.150 96.264,156.150 96.081 C 156.150 95.897,156.041 95.639,155.908 95.506 C 155.482 95.080,155.046 92.258,155.046 89.929 C 155.046 87.898,155.518 84.492,155.799 84.492 C 155.878 84.492,155.999 84.237,156.068 83.925 C 156.387 82.473,158.289 79.809,159.804 78.692 C 160.196 78.403,160.557 78.125,160.606 78.076 C 160.700 77.981,161.752 77.389,162.210 77.173 C 163.368 76.627,163.884 76.503,165.860 76.293 C 166.641 76.210,167.310 76.056,167.345 75.950 C 167.427 75.704,167.613 75.705,167.862 75.955 M233.644 76.237 C 234.306 76.282,235.049 76.387,235.294 76.469 C 235.539 76.551,236.121 76.723,236.586 76.851 C 237.052 76.978,237.433 77.134,237.433 77.195 C 237.433 77.257,237.774 77.459,238.191 77.644 C 238.607 77.828,239.034 78.061,239.139 78.161 C 239.245 78.261,239.605 78.533,239.942 78.765 C 240.874 79.411,242.636 81.638,243.063 82.709 C 243.122 82.857,243.238 83.137,243.323 83.333 C 243.407 83.529,243.602 84.091,243.756 84.581 C 243.910 85.071,244.111 85.633,244.203 85.829 C 244.546 86.565,244.855 91.402,244.577 91.680 C 244.471 91.785,244.385 92.290,244.385 92.802 C 244.385 93.314,244.271 93.959,244.131 94.237 C 243.991 94.514,243.775 95.102,243.651 95.544 C 243.355 96.590,242.415 98.384,241.773 99.124 C 240.405 100.703,238.148 102.496,237.527 102.496 C 237.389 102.496,237.230 102.570,237.174 102.660 C 237.118 102.751,236.833 102.877,236.540 102.942 C 236.247 103.006,236.007 103.124,236.007 103.205 C 236.007 103.562,229.867 103.913,229.529 103.575 C 229.425 103.472,229.082 103.387,228.767 103.387 C 228.451 103.387,227.926 103.253,227.599 103.089 C 226.548 102.562,226.390 102.496,226.196 102.496 C 225.907 102.496,224.080 101.192,223.153 100.324 C 221.839 99.094,220.482 96.878,219.980 95.143 C 219.873 94.775,219.706 94.208,219.608 93.882 C 219.510 93.557,219.428 92.734,219.427 92.055 C 219.426 91.376,219.322 90.619,219.196 90.374 C 219.010 90.012,219.011 89.846,219.198 89.483 C 219.324 89.238,219.428 88.482,219.428 87.802 C 219.429 87.123,219.504 86.321,219.596 86.020 C 219.687 85.719,219.864 85.111,219.989 84.670 C 220.631 82.408,223.694 78.253,224.721 78.253 C 224.850 78.253,224.955 78.179,224.955 78.088 C 224.955 77.997,225.276 77.781,225.668 77.608 C 226.061 77.435,226.381 77.228,226.381 77.149 C 226.381 77.070,226.543 77.005,226.740 77.005 C 226.938 77.005,227.239 76.933,227.409 76.844 C 227.977 76.549,229.132 76.309,230.364 76.231 C 231.035 76.188,231.671 76.066,231.777 75.959 C 231.916 75.820,232.036 75.821,232.204 75.960 C 232.333 76.067,232.981 76.192,233.644 76.237 M296.570 75.964 C 296.684 76.078,297.362 76.236,298.077 76.314 C 299.955 76.521,300.703 76.667,300.814 76.847 C 300.868 76.934,301.108 77.005,301.347 77.005 C 301.587 77.005,301.783 77.080,301.783 77.172 C 301.783 77.263,301.963 77.394,302.184 77.463 C 304.602 78.221,308.373 83.265,308.379 85.752 C 308.380 85.990,308.500 86.415,308.646 86.696 C 308.984 87.344,309.036 92.675,308.707 93.004 C 308.595 93.117,308.440 93.554,308.364 93.975 C 308.032 95.823,307.265 97.661,306.462 98.535 C 306.339 98.669,306.239 98.838,306.239 98.912 C 306.239 99.087,304.553 100.891,304.389 100.891 C 304.319 100.891,304.052 101.087,303.794 101.326 C 303.266 101.815,301.414 102.780,300.668 102.954 C 300.399 103.017,300.178 103.132,300.178 103.209 C 300.178 103.460,298.714 103.608,296.257 103.605 C 293.726 103.603,292.157 103.450,292.157 103.205 C 292.157 103.124,291.902 103.003,291.590 102.934 C 290.139 102.615,287.844 100.937,286.455 99.179 C 285.031 97.376,284.355 95.900,283.957 93.728 C 283.873 93.269,283.718 92.733,283.613 92.537 C 283.308 91.967,283.368 87.668,283.689 87.052 C 283.835 86.772,283.956 86.325,283.956 86.060 C 283.957 85.795,284.027 85.394,284.113 85.169 C 284.198 84.944,284.363 84.462,284.478 84.099 C 285.786 79.980,289.920 76.714,294.345 76.305 C 295.107 76.235,295.825 76.083,295.940 75.967 C 296.202 75.705,296.310 75.704,296.570 75.964 M102.447 118.132 C 102.763 118.172,103.325 118.172,103.695 118.134 C 104.065 118.095,103.806 118.063,103.119 118.062 C 102.433 118.061,102.131 118.093,102.447 118.132 " stroke="none" fill="#048c9c" fill-rule="evenodd"></path></g></svg>