<?xml version="1.0" ?><svg viewBox="0 0 32 32" xmlns="http://www.w3.org/2000/svg"><title/><g id="Icons"><path d="M21,24a1,1,0,0,0-1,1v3H6V4H20V7a1,1,0,0,0,2,0V3a1,1,0,0,0-1-1H5A1,1,0,0,0,4,3V29a1,1,0,0,0,1,1H21a1,1,0,0,0,1-1V25A1,1,0,0,0,21,24Z"/><circle cx="9" cy="16" r="1"/><path d="M27.93,16.36a1,1,0,0,0,0-.72.41.41,0,0,0-.07-.11.44.44,0,0,0-.08-.15l-4-5a1,1,0,0,0-1.4-.16,1,1,0,0,0-.16,1.41L24.92,15H17a1,1,0,0,0,0,2h7.92l-2.7,3.38a1,1,0,0,0,.16,1.4A1,1,0,0,0,23,22a1,1,0,0,0,.78-.37l4-5a.6.6,0,0,0,.08-.16A.41.41,0,0,0,27.93,16.36Z"/></g></svg>